<mxfile host="app.diagrams.net" modified="2021-05-27T11:51:44.302Z" agent="5.0 (Windows NT 10.0; Win64; x64) AppleWebKit/537.36 (KHTML, like Gecko) Chrome/90.0.4430.212 Safari/537.36" etag="phfrKK-vkW8264dd691s" version="14.7.2" type="github">
  <diagram id="Xy-YRD0I97BFXgS-AllR" name="Page-1">
    <mxGraphModel dx="2062" dy="1154" grid="1" gridSize="10" guides="1" tooltips="1" connect="1" arrows="1" fold="1" page="1" pageScale="1" pageWidth="1169" pageHeight="827" math="0" shadow="0">
      <root>
        <mxCell id="0" />
        <mxCell id="1" parent="0" />
        <mxCell id="teGeM1OhoDAreC8bc_A--1" value="User" style="rounded=0;whiteSpace=wrap;html=1;" parent="1" vertex="1">
          <mxGeometry x="900" y="50" width="100" height="50" as="geometry" />
        </mxCell>
        <mxCell id="teGeM1OhoDAreC8bc_A--2" value="Research paper" style="rounded=0;whiteSpace=wrap;html=1;" parent="1" vertex="1">
          <mxGeometry x="585" y="310" width="100" height="50" as="geometry" />
        </mxCell>
        <mxCell id="teGeM1OhoDAreC8bc_A--3" value="Workshop paper" style="rounded=0;whiteSpace=wrap;html=1;" parent="1" vertex="1">
          <mxGeometry x="585" y="420" width="100" height="50" as="geometry" />
        </mxCell>
        <mxCell id="teGeM1OhoDAreC8bc_A--4" value="Reviewer" style="rounded=0;whiteSpace=wrap;html=1;" parent="1" vertex="1">
          <mxGeometry x="140" y="450" width="100" height="50" as="geometry" />
        </mxCell>
        <mxCell id="teGeM1OhoDAreC8bc_A--5" value="Conference" style="rounded=0;whiteSpace=wrap;html=1;" parent="1" vertex="1">
          <mxGeometry x="510" y="50" width="100" height="50" as="geometry" />
        </mxCell>
        <mxCell id="teGeM1OhoDAreC8bc_A--6" value="Admin" style="rounded=0;whiteSpace=wrap;html=1;" parent="1" vertex="1">
          <mxGeometry x="300" y="620" width="100" height="50" as="geometry" />
        </mxCell>
        <mxCell id="0rFZUuT9Uq02bBF6Id93-1" value="Researcher" style="rounded=0;whiteSpace=wrap;html=1;" vertex="1" parent="1">
          <mxGeometry x="760" y="310" width="100" height="50" as="geometry" />
        </mxCell>
        <mxCell id="0rFZUuT9Uq02bBF6Id93-2" value="Workshop presenter" style="rounded=0;whiteSpace=wrap;html=1;" vertex="1" parent="1">
          <mxGeometry x="830" y="420" width="100" height="50" as="geometry" />
        </mxCell>
        <mxCell id="0rFZUuT9Uq02bBF6Id93-3" value="" style="triangle;whiteSpace=wrap;html=1;rotation=-90;" vertex="1" parent="1">
          <mxGeometry x="920" y="170" width="60" height="60" as="geometry" />
        </mxCell>
        <mxCell id="0rFZUuT9Uq02bBF6Id93-4" value="&lt;font style=&quot;font-size: 14px&quot;&gt;ISA&lt;/font&gt;" style="text;html=1;align=center;verticalAlign=middle;resizable=0;points=[];autosize=1;strokeColor=none;" vertex="1" parent="1">
          <mxGeometry x="930" y="205" width="40" height="20" as="geometry" />
        </mxCell>
        <mxCell id="0rFZUuT9Uq02bBF6Id93-5" value="Attendee" style="rounded=0;whiteSpace=wrap;html=1;" vertex="1" parent="1">
          <mxGeometry x="960" y="490" width="100" height="50" as="geometry" />
        </mxCell>
        <mxCell id="0rFZUuT9Uq02bBF6Id93-6" value="Has" style="rhombus;whiteSpace=wrap;html=1;" vertex="1" parent="1">
          <mxGeometry x="720" y="35" width="80" height="80" as="geometry" />
        </mxCell>
        <mxCell id="0rFZUuT9Uq02bBF6Id93-7" value="" style="endArrow=none;html=1;exitX=1;exitY=0.5;exitDx=0;exitDy=0;entryX=0;entryY=0.5;entryDx=0;entryDy=0;" edge="1" parent="1" source="teGeM1OhoDAreC8bc_A--5" target="0rFZUuT9Uq02bBF6Id93-6">
          <mxGeometry width="50" height="50" relative="1" as="geometry">
            <mxPoint x="810" y="510" as="sourcePoint" />
            <mxPoint x="860" y="460" as="targetPoint" />
          </mxGeometry>
        </mxCell>
        <mxCell id="0rFZUuT9Uq02bBF6Id93-8" value="" style="endArrow=none;html=1;exitX=1;exitY=0.5;exitDx=0;exitDy=0;entryX=0;entryY=0.5;entryDx=0;entryDy=0;shape=link;" edge="1" parent="1" source="0rFZUuT9Uq02bBF6Id93-6" target="teGeM1OhoDAreC8bc_A--1">
          <mxGeometry width="50" height="50" relative="1" as="geometry">
            <mxPoint x="810" y="510" as="sourcePoint" />
            <mxPoint x="860" y="460" as="targetPoint" />
          </mxGeometry>
        </mxCell>
      </root>
    </mxGraphModel>
  </diagram>
</mxfile>
